<svg version="1.1" xmlns="http://www.w3.org/2000/svg" xmlns:xlink="http://www.w3.org/1999/xlink" width="200" height="200" viewBox="0 0 24 24">
  <path fill="#FDFAF3" d="M12,2.16c3.2,0,3.58,0.01,4.85,0.07c3.25,0.15,4.72,1.63,4.87,4.87C21.99,8.38,22,8.76,22,11.96 c0,3.2-0.01,3.58-0.07,4.85c-0.15,3.25-1.63,4.72-4.87,4.87c-1.27,0.06-1.64,0.07-4.85,0.07c-3.2,0-3.58-0.01-4.85-0.07 c-3.25-0.15-4.72-1.63-4.87-4.87C2.01,15.58,2,15.2,2,11.96c0-3.2,0.01-3.58,0.07-4.85c0.15-3.25,1.63-4.72,4.87-4.87 C8.38,2.17,8.76,2.16,12,2.16 M12,0.36C8.74,0.36,8.33,0.37,7.05,0.43c-4.43,0.2-6.88,2.65-7.08,7.08C-0.09,8.79-0.1,9.2-0.1,12.46 c0,3.26,0.01,3.67,0.07,4.95c0.2,4.43,2.65,6.88,7.08,7.08c1.28,0.06,1.69,0.07,4.95,0.07c3.26,0,3.67-0.01,4.95-0.07 c4.43-0.2,6.88-2.65,7.08-7.08c0.06-1.28,0.07-1.69,0.07-4.95c0-3.26-0.01-3.67-0.07-4.95c-0.2-4.43-2.65-6.88-7.08-7.08 C15.63,0.37,15.22,0.36,11.96,0.36L12,0.36z"/>
  
  <path fill="none" stroke="#FDFAF3" stroke-width="1.8" d="M12,5.84c-3.38,0-6.12,2.74-6.12,6.12c0,3.38,2.74,6.12,6.12,6.12s6.12-2.74,6.12-6.12 C18.12,8.58,15.38,5.84,12,5.84L12,5.84z"/>
  
  <circle fill="#FDFAF3" cx="17.65" cy="6.31" r="1.43"/>
</svg>
